Hanif_Medium_2_5_grf.mot
version=1
nRows=53
nColumns=19
inDegrees=yes
endheader
time	right_ground_force_vx	right_ground_force_vy	right_ground_force_vz	right_ground_force_px	right_ground_force_py	right_ground_force_pz	right_ground_torque_x	right_ground_torque_y	right_ground_torque_z	left_ground_force_vx	left_ground_force_vy	left_ground_force_vz	left_ground_force_px	left_ground_force_py	left_ground_force_pz	left_ground_torque_x	left_ground_torque_y	left_ground_torque_z
1.775000	0.131275	216.267000	52.882300	0.228654	0.000000	-1.435940	-15.150500	0.518255	6.692010	-8.837010	207.996000	-49.332700	0.235763	0.000000	-0.975925	15.303600	-0.780110	8.194970
1.780000	-0.413401	215.804000	53.035900	0.228615	0.000000	-1.435810	-15.151600	0.518850	6.682750	-9.235310	207.333000	-49.339700	0.235658	0.000000	-0.975271	15.129500	-0.838961	8.170340
1.785000	-0.647271	211.797000	52.009000	0.228683	0.000000	-1.436540	-14.716500	0.444682	6.561560	-9.088810	206.382000	-49.472600	0.234765	0.000000	-0.975970	15.199100	-0.782386	7.933620
1.790000	-0.659845	211.846000	52.143600	0.228811	0.000000	-1.437230	-14.574000	0.404106	6.583850	-8.741110	207.125000	-49.310100	0.235208	0.000000	-0.974296	14.897400	-0.729448	8.027850
1.795000	-1.011280	209.547000	52.000100	0.228932	0.000000	-1.437390	-14.385500	0.277666	6.522180	-9.197080	204.395000	-48.993100	0.235050	0.000000	-0.975794	15.018200	-0.711238	7.906640
1.800000	-1.261090	208.323000	51.811900	0.229257	0.000000	-1.437060	-14.372500	0.196973	6.542610	-8.739620	201.866000	-49.219600	0.235319	0.000000	-0.975601	14.789200	-0.712252	7.881860
1.805000	-1.699950	206.148000	51.778300	0.229873	0.000000	-1.436580	-14.325100	0.064094	6.592600	-8.876930	201.827000	-48.962900	0.235296	0.000000	-0.975117	14.687800	-0.646041	7.855010
1.810000	-1.800580	207.524000	51.809100	0.229218	0.000000	-1.438550	-14.011900	0.052649	6.484750	-9.322360	201.507000	-48.640500	0.234989	0.000000	-0.975233	14.692500	-0.588033	7.765860
1.815000	-2.002750	206.946000	51.771300	0.229959	0.000000	-1.437650	-14.160400	-0.063526	6.606200	-8.999490	199.606000	-48.317200	0.235406	0.000000	-0.975452	14.592700	-0.541388	7.770190
1.820000	-2.092630	206.411000	51.739400	0.230018	0.000000	-1.436980	-14.261700	-0.172978	6.578220	-9.580610	199.139000	-48.243800	0.234211	0.000000	-0.974921	14.458600	-0.495859	7.499680
1.825000	-2.469440	205.064000	51.327200	0.230540	0.000000	-1.437620	-14.039600	-0.299272	6.622410	-9.452000	199.633000	-48.342400	0.234011	0.000000	-0.973982	14.301100	-0.445962	7.458300
1.830000	-3.288310	204.053000	51.052400	0.230009	0.000000	-1.437910	-13.916900	-0.354640	6.474110	-9.227830	198.915000	-47.542100	0.233730	0.000000	-0.973666	14.180500	-0.417750	7.348360
1.835000	-3.800020	200.667000	49.678400	0.229025	0.000000	-1.437960	-13.677400	-0.475023	6.127760	-9.568240	197.172000	-47.533200	0.234082	0.000000	-0.974708	14.272100	-0.439393	7.381920
1.840000	-4.344610	196.002000	48.446600	0.229542	0.000000	-1.437820	-13.388900	-0.615162	6.065180	-9.148430	197.490000	-46.724700	0.232376	0.000000	-0.973823	14.102500	-0.335157	6.984460
1.845000	-5.018980	193.726000	47.636600	0.228402	0.000000	-1.438710	-13.061600	-0.720932	5.740620	-8.708720	197.176000	-46.550700	0.232088	0.000000	-0.974067	14.119100	-0.293444	6.894970
1.850000	-4.950390	191.103000	46.689100	0.228784	0.000000	-1.438270	-12.967200	-0.784238	5.719310	-8.971600	195.665000	-45.919600	0.231742	0.000000	-0.974503	14.100100	-0.288420	6.771190
1.855000	-5.146610	186.775000	45.886500	0.228228	0.000000	-1.437930	-12.733700	-0.896034	5.456480	-8.492690	195.093000	-45.604500	0.230740	0.000000	-0.974081	13.964700	-0.231998	6.520210
1.860000	-5.210460	182.514000	45.113100	0.227782	0.000000	-1.437770	-12.471200	-0.967309	5.229270	-8.577970	195.328000	-45.304700	0.230713	0.000000	-0.975205	14.201300	-0.215396	6.515440
1.865000	-4.946230	179.878000	44.189700	0.227324	0.000000	-1.436800	-12.461700	-1.016070	5.046020	-8.806000	196.533000	-45.055100	0.230459	0.000000	-0.973370	13.929700	-0.232293	6.496090
1.870000	-5.084340	178.402000	43.750400	0.227539	0.000000	-1.438250	-12.098400	-1.155260	5.009640	-8.580370	195.745000	-44.528400	0.230484	0.000000	-0.974315	14.053700	-0.175392	6.455030
1.875000	-5.061470	177.419000	43.007400	0.226032	0.000000	-1.438790	-11.931700	-1.184140	4.685320	-8.475990	197.747000	-44.508900	0.230195	0.000000	-0.974096	14.146600	-0.094040	6.430270
1.880000	-5.277270	176.996000	42.364400	0.225397	0.000000	-1.438140	-12.016600	-1.232720	4.543340	-8.396040	200.910000	-45.413800	0.229393	0.000000	-0.974873	14.525000	-0.094316	6.364860
1.885000	-4.820580	177.396000	42.720400	0.226728	0.000000	-1.439440	-11.812300	-1.302550	4.780080	-8.226070	203.842000	-45.650300	0.229225	0.000000	-0.974318	14.617400	-0.058762	6.400590
1.890000	-4.685500	180.211000	42.664100	0.225387	0.000000	-1.437240	-12.392300	-1.389870	4.578650	-7.979250	206.624000	-45.953300	0.228481	0.000000	-0.973923	14.726900	-0.003181	6.302540
1.895000	-4.280310	182.162000	43.262200	0.225556	0.000000	-1.437990	-12.388500	-1.447940	4.643170	-7.982170	210.163000	-46.993600	0.227848	0.000000	-0.973455	14.875000	0.083542	6.252320
1.900000	-4.374460	183.350000	42.774400	0.225756	0.000000	-1.438920	-12.296000	-1.539570	4.688650	-7.008740	214.685000	-47.294900	0.227189	0.000000	-0.973301	15.148200	0.073835	6.212570
1.905000	-4.205330	184.279000	42.484300	0.225804	0.000000	-1.437830	-12.559900	-1.507750	4.726350	-6.652010	218.434000	-48.004900	0.227315	0.000000	-0.973023	15.347500	0.069233	6.341830
1.910000	-4.824370	186.685000	41.817400	0.225779	0.000000	-1.438290	-12.636100	-1.584730	4.772250	-6.805230	219.712000	-47.910400	0.224842	0.000000	-0.973017	15.434400	0.022507	5.816510
1.915000	-5.179550	186.246000	41.130000	0.224633	0.000000	-1.437430	-12.765200	-1.601870	4.536220	-6.944260	219.180000	-47.674900	0.225009	0.000000	-0.973082	15.413800	-0.001425	5.847030
1.920000	-5.832720	186.431000	39.967100	0.225406	0.000000	-1.438080	-12.655400	-1.642400	4.686920	-6.843900	218.872000	-47.422800	0.223816	0.000000	-0.973245	15.427700	-0.085018	5.579940
1.925000	-6.134650	184.792000	39.212900	0.225130	0.000000	-1.437270	-12.695000	-1.593020	4.604380	-7.124590	221.129000	-46.805900	0.222190	0.000000	-0.972216	15.356200	-0.039338	5.239470
1.930000	-6.638070	184.496000	38.832600	0.224768	0.000000	-1.439020	-12.346900	-1.721330	4.503270	-7.641050	219.359000	-46.264900	0.222295	0.000000	-0.972794	15.366600	-0.061366	5.233480
1.935000	-6.752660	185.186000	38.498400	0.225786	0.000000	-1.438400	-12.509800	-1.687270	4.725750	-7.916420	219.268000	-45.625700	0.221582	0.000000	-0.972130	15.220300	-0.197779	5.092210
1.940000	-6.990100	185.988000	38.740400	0.225105	0.000000	-1.437280	-12.772000	-1.715520	4.614560	-8.190640	218.347000	-45.129200	0.220778	0.000000	-0.972412	15.220500	-0.217786	4.893210
1.945000	-6.980510	188.225000	39.367800	0.224648	0.000000	-1.438160	-12.758600	-1.742440	4.576880	-8.078510	221.510000	-44.958700	0.220102	0.000000	-0.971595	15.255900	-0.228126	4.794960
1.950000	-6.803240	191.394000	39.885300	0.224381	0.000000	-1.438430	-12.920500	-1.742450	4.601770	-8.135180	222.968000	-45.182800	0.218997	0.000000	-0.972359	15.524800	-0.223657	4.569330
1.955000	-6.118240	194.688000	40.763200	0.224298	0.000000	-1.437350	-13.358000	-1.651230	4.680200	-7.301000	225.084000	-45.591700	0.219415	0.000000	-0.971734	15.522900	-0.215027	4.694380
1.960000	-6.044000	199.411000	41.919800	0.224563	0.000000	-1.438400	-13.475200	-1.629490	4.858010	-6.705090	228.725000	-45.926000	0.217927	0.000000	-0.971224	15.650200	-0.280003	4.413850
1.965000	-5.178540	203.362000	43.069600	0.224178	0.000000	-1.438220	-13.779300	-1.586770	4.875610	-5.530670	233.542000	-47.163900	0.217893	0.000000	-0.971879	16.122000	-0.288338	4.484280
1.970000	-4.753670	207.162000	43.571700	0.223309	0.000000	-1.438380	-14.003900	-1.513890	4.791570	-5.151830	237.185000	-48.057100	0.217453	0.000000	-0.971738	16.337900	-0.385975	4.459550
1.975000	-4.096880	209.052000	43.696800	0.223697	0.000000	-1.438800	-14.046900	-1.423050	4.930500	-4.308200	241.742000	-48.897800	0.216648	0.000000	-0.971232	16.522600	-0.460290	4.341790
1.980000	-4.079310	211.369000	44.231700	0.222663	0.000000	-1.438040	-14.362300	-1.392760	4.766610	-3.345790	245.591000	-49.815400	0.216775	0.000000	-0.971207	16.771400	-0.436970	4.424090
1.985000	-3.438130	215.778000	44.883600	0.222304	0.000000	-1.439360	-14.377900	-1.276070	4.803110	-3.645410	248.465000	-50.182800	0.215995	0.000000	-0.970547	16.805900	-0.508388	4.288790
1.990000	-3.180280	217.653000	45.183700	0.222447	0.000000	-1.439570	-14.457800	-1.271740	4.876080	-3.162710	251.938000	-50.982900	0.216107	0.000000	-0.971429	17.259300	-0.518004	4.372680
1.995000	-2.990370	218.490000	45.317200	0.222228	0.000000	-1.439180	-14.598100	-1.338930	4.829260	-3.363040	255.422000	-51.566700	0.215858	0.000000	-0.971507	17.518800	-0.511825	4.365450
2.000000	-2.552600	220.570000	45.521300	0.222017	0.000000	-1.438760	-14.833100	-1.093770	4.872800	-3.129800	259.274000	-52.283300	0.215852	0.000000	-0.971745	17.843000	-0.549055	4.431300
2.005000	-2.532990	224.521000	46.366000	0.222184	0.000000	-1.439280	-14.981400	-1.110850	4.998770	-3.007350	262.309000	-53.268200	0.215750	0.000000	-0.971110	17.883900	-0.534906	4.451980
2.010000	-1.716450	228.344000	47.491500	0.221609	0.000000	-1.440180	-15.029400	-1.116760	4.938920	-2.854570	266.509000	-53.603900	0.215496	0.000000	-0.971346	18.232100	-0.596894	4.456300
2.015000	-1.608790	230.575000	48.016300	0.220857	0.000000	-1.440090	-15.198700	-1.044240	4.822390	-3.326460	267.456000	-54.067100	0.215672	0.000000	-0.972065	18.492500	-0.586702	4.527880
2.020000	-1.806720	231.636000	48.088100	0.219950	0.000000	-1.440740	-15.116100	-1.041700	4.628540	-3.365790	269.600000	-54.377600	0.215482	0.000000	-0.971930	18.604100	-0.582421	4.508090
2.025000	-1.810540	232.096000	47.933600	0.219852	0.000000	-1.441440	-14.984500	-0.987167	4.624360	-3.792830	271.650000	-54.232500	0.215680	0.000000	-0.971197	18.550200	-0.645195	4.609640
2.030000	-2.260750	231.734000	47.999900	0.220095	0.000000	-1.440950	-15.075000	-0.946349	4.691020	-4.232080	271.545000	-53.934000	0.214922	0.000000	-0.971052	18.505900	-0.618528	4.391850
2.035000	-2.142120	232.713000	47.908500	0.219746	0.000000	-1.441780	-14.946500	-0.848367	4.643660	-5.036330	268.601000	-53.376800	0.214387	0.000000	-0.970702	18.218500	-0.686591	4.221120
